<?xml version="1.0" encoding="UTF-8" standalone="no"?>
<!-- Created with Inkscape (http://www.inkscape.org/) -->

<svg
   width="187.11247mm"
   height="187.11247mm"
   viewBox="0 0 187.11247 187.11247"
   version="1.1"
   id="svg383"
   xml:space="preserve"
   xmlns:inkscape="http://www.inkscape.org/namespaces/inkscape"
   xmlns:sodipodi="http://sodipodi.sourceforge.net/DTD/sodipodi-0.dtd"
   xmlns="http://www.w3.org/2000/svg"
   xmlns:svg="http://www.w3.org/2000/svg"><sodipodi:namedview
     id="namedview385"
     pagecolor="#ffffff"
     bordercolor="#666666"
     borderopacity="1.0"
     inkscape:showpageshadow="2"
     inkscape:pageopacity="0.0"
     inkscape:pagecheckerboard="0"
     inkscape:deskcolor="#d1d1d1"
     inkscape:document-units="mm"
     showgrid="false" /><defs
     id="defs380"><inkscape:path-effect
       effect="bend_path"
       id="path-effect2136"
       is_visible="true"
       lpeversion="1"
       bendpath="m 97.778757,124.48046 c 38.467693,-54.430703 68.741613,-43.028708 95.079163,0"
       prop_scale="1"
       scale_y_rel="false"
       vertical="false"
       hide_knot="false"
       bendpath-nodetypes="cc" /></defs><g
     inkscape:label="Layer 1"
     inkscape:groupmode="layer"
     id="layer1"
     transform="translate(-8.6948263,-55.887629)"><circle
       style="fill:#ffcc00;fill-opacity:0.54798;stroke:#000000;stroke-width:0.229;stroke-linecap:round;stroke-linejoin:round"
       id="path556"
       cx="102.25106"
       cy="149.44386"
       r="93.441734" /><g
       aria-label="Most Appearances"
       id="text770"
       style="font-size:10.5833px;line-height:1.25;stroke-width:0.264583"
       class="UnoptimicedTransforms"
       inkscape:path-effect="#path-effect2136"
       transform="matrix(1.6681538,0,0,1.5767829,-138.73767,-61.970604)"><path
         d="m 105.26032,119.02472 c -0.27016,0.3504 -0.53913,0.70197 -0.80696,1.05462 l -5.302079,-4.02312 c 0.62277,1.67756 1.266139,3.33976 1.925169,4.98814 -0.15835,0.21489 -0.31627,0.43005 -0.47379,0.64547 -1.766085,-0.13931 -3.53685,-0.25891 -5.30843,-0.36214 l 5.40355,3.85257 c -0.24134,0.33693 -0.48191,0.67439 -0.721781,1.01228 l -6.28505,-4.43744 c 0.356105,-0.50913 0.714797,-1.01792 1.076218,-1.52612 1.693867,0.0855 3.386945,0.18636 5.075818,0.30552 -0.637555,-1.55205 -1.261407,-3.11646 -1.867527,-4.69453 0.385411,-0.51195 0.774081,-1.02252 1.16616,-1.53145 z"
         id="path822"
         inkscape:original-d="m 104.63103,127.26324 h -1.02319 v -6.63007 l -2.1394,4.51134 h -0.60978 l -2.123892,-4.51134 v 6.63007 h -0.956011 v -7.6946 h 1.395259 l 2.051544,4.28396 1.98437,-4.28396 h 1.4211 z" /><path
         d="m 108.74201,110.21286 c 0.70799,0.62134 1.05811,1.34997 1.06329,2.17807 0.005,0.82952 -0.32512,1.63728 -0.99106,2.44046 -0.67179,0.81024 -1.40907,1.28998 -2.22787,1.43789 -0.81543,0.14431 -1.5946,-0.0706 -2.3351,-0.65642 -0.74043,-0.58577 -1.12916,-1.29679 -1.15466,-2.13922 -0.0253,-0.84703 0.31191,-1.70171 1.01609,-2.54778 0.69831,-0.83901 1.47605,-1.32396 2.31442,-1.45388 0.83606,-0.13222 1.60669,0.11936 2.31489,0.74088 z m -0.86577,0.99712 c -0.56858,-0.48842 -1.11626,-0.70397 -1.6466,-0.64152 -0.53219,0.0601 -1.02509,0.35811 -1.47092,0.89404 -0.45173,0.54301 -0.65745,1.08499 -0.61918,1.61898 0.0385,0.52892 0.35216,1.02696 0.93674,1.49765 0.56552,0.45536 1.11608,0.65109 1.64883,0.59205 0.53073,-0.0613 1.00945,-0.35367 1.44312,-0.87642 0.4279,-0.51581 0.62474,-1.03514 0.59003,-1.56508 -0.0344,-0.53486 -0.32685,-1.04281 -0.88202,-1.5197 z"
         id="path824"
         inkscape:original-d="m 111.54015,124.3797 q 0,1.41076 -0.72347,2.22725 -0.72347,0.81648 -1.93786,0.81648 -1.22473,0 -1.9482,-0.81648 -0.7183,-0.81649 -0.7183,-2.22725 0,-1.41076 0.7183,-2.22725 0.72347,-0.82165 1.9482,-0.82165 1.21439,0 1.93786,0.82165 0.72347,0.81649 0.72347,2.22725 z m -1.00252,0 q 0,-1.12137 -0.43925,-1.66397 -0.43925,-0.54777 -1.21956,-0.54777 -0.79065,0 -1.2299,0.54777 -0.43408,0.5426 -0.43408,1.66397 0,1.0852 0.43925,1.64847 0.43925,0.55811 1.22473,0.55811 0.77514,0 1.21439,-0.55294 0.44442,-0.5581 0.44442,-1.65364 z" /><path
         d="m 114.65984,105.68116 c 0.371,0.37354 0.47366,0.87852 0.32017,1.51358 -0.15063,0.63291 -0.55731,1.29119 -1.218,1.99228 -0.3742,0.39709 -0.75166,0.73108 -1.13552,1.00208 -0.38355,0.26549 -0.72266,0.47405 -1.02002,0.62445 l -0.81151,-0.73016 c 0.015,-0.0167 0.0299,-0.0333 0.0449,-0.05 0.43823,-0.14157 0.87131,-0.34428 1.30115,-0.60755 0.42731,-0.26559 0.79247,-0.55831 1.09703,-0.88056 0.37771,-0.39964 0.62586,-0.75625 0.74338,-1.07535 0.11736,-0.31869 0.072,-0.58173 -0.13939,-0.78899 -0.16216,-0.15902 -0.34446,-0.21891 -0.54735,-0.1785 -0.20242,0.0403 -0.50362,0.20597 -0.89933,0.50016 -0.14646,0.10842 -0.33676,0.25541 -0.5676,0.43988 -0.22827,0.18162 -0.44122,0.34373 -0.63972,0.48627 -0.55093,0.39493 -1.01378,0.61258 -1.39518,0.64759 -0.3803,0.0293 -0.71207,-0.0814 -0.99406,-0.3353 -0.17686,-0.15923 -0.30053,-0.35693 -0.37004,-0.59367 -0.0664,-0.24013 -0.0707,-0.51521 -0.0115,-0.82501 0.0554,-0.30056 0.18471,-0.62961 0.38905,-0.98547 0.20496,-0.3616 0.47948,-0.72389 0.82361,-1.08431 0.32163,-0.33686 0.67992,-0.64543 1.07377,-0.92429 0.39454,-0.28449 0.7475,-0.49485 1.05597,-0.63248 l 0.73306,0.73357 c -0.0163,0.0162 -0.0325,0.0325 -0.0488,0.0487 -0.36285,0.1049 -0.75588,0.28326 -1.17679,0.53656 -0.42344,0.25092 -0.79374,0.54315 -1.1093,0.8745 -0.32831,0.34475 -0.55338,0.68549 -0.6756,1.0189 -0.12483,0.3313 -0.0868,0.58802 0.11086,0.77011 0.17493,0.16117 0.3735,0.21011 0.59539,0.14813 0.21913,-0.0587 0.50157,-0.21879 0.85043,-0.47829 0.19269,-0.14405 0.40383,-0.30677 0.63504,-0.48857 0.23383,-0.18469 0.43212,-0.33522 0.59247,-0.45111 0.48828,-0.35487 0.93671,-0.55547 1.34076,-0.6051 0.40674,-0.0472 0.75701,0.0802 1.05265,0.37789 z"
         id="path826"
         inkscape:original-d="m 117.16769,125.59926 q 0,0.79065 -0.65629,1.29708 -0.65112,0.50642 -1.78283,0.50642 -0.64078,0 -1.17822,-0.14986 -0.53226,-0.15503 -0.894,-0.33589 v -1.09037 h 0.0517 q 0.45992,0.34623 1.02319,0.55293 0.56327,0.20154 1.08003,0.20154 0.64079,0 1.00252,-0.2067 0.36174,-0.20671 0.36174,-0.65113 0,-0.34106 -0.19637,-0.51676 -0.19637,-0.1757 -0.75448,-0.29972 -0.2067,-0.0465 -0.5426,-0.10852 -0.33072,-0.062 -0.60461,-0.13436 -0.75964,-0.20154 -1.08003,-0.58911 -0.31523,-0.39274 -0.31523,-0.96118 0,-0.35656 0.1447,-0.67179 0.14986,-0.31522 0.44958,-0.56327 0.28939,-0.24288 0.7338,-0.3824 0.44959,-0.1447 1.00252,-0.1447 0.51676,0 1.04386,0.12919 0.53227,0.12403 0.88367,0.30489 v 1.0387 h -0.0517 q -0.37207,-0.27389 -0.90433,-0.45992 -0.53227,-0.19121 -1.04386,-0.19121 -0.53227,0 -0.89917,0.20671 -0.3669,0.20154 -0.3669,0.60461 0,0.35657 0.2222,0.53744 0.21705,0.18086 0.7028,0.29455 0.26872,0.062 0.59945,0.12402 0.33589,0.062 0.5581,0.11369 0.67696,0.15503 1.04386,0.53227 0.3669,0.3824 0.3669,1.01285 z" /><path
         d="m 119.86377,103.01944 c -0.14245,0.18838 -0.30599,0.38507 -0.49053,0.59081 -0.18129,0.20289 -0.35049,0.3761 -0.50879,0.51968 -0.55221,0.50084 -1.07312,0.7728 -1.57416,0.81113 -0.50028,0.0383 -0.99367,-0.19123 -1.4754,-0.69565 l -2.11479,-2.21437 c -0.2123,0.20243 -0.42365,0.40583 -0.63405,0.61016 l -0.56812,-0.58399 c 0.21224,-0.20599 0.42546,-0.41105 0.63966,-0.61517 l -1.14284,-1.19665 c 0.32279,-0.307244 0.64785,-0.612467 0.97521,-0.915586 l 1.12541,1.212066 c 0.6634,-0.614851 1.33618,-1.22048 2.01875,-1.816128 l 0.53518,0.612829 c -0.67609,0.590104 -1.34262,1.190319 -2,1.799889 l 1.78451,1.92193 c 0.20562,0.22146 0.37361,0.38918 0.50343,0.50288 0.12756,0.11125 0.2806,0.18471 0.45882,0.22106 0.16475,0.0348 0.33075,0.0194 0.49835,-0.0457 0.16875,-0.0707 0.38101,-0.22292 0.63972,-0.45564 0.15058,-0.13545 0.29321,-0.29278 0.42847,-0.47221 0.13321,-0.18234 0.22607,-0.31594 0.27895,-0.4034 0.0166,-0.0145 0.0332,-0.029 0.0498,-0.0435 0.19081,0.21853 0.38162,0.43705 0.57242,0.65557 z"
         id="path828"
         inkscape:original-d="m 121.55501,127.21156 q -0.27389,0.0724 -0.59945,0.11886 -0.32039,0.0465 -0.5736,0.0465 -0.88367,0 -1.34359,-0.47542 -0.45992,-0.47542 -0.45992,-1.52445 v -3.06957 h -0.65628 V 121.491 h 0.65628 v -1.65881 h 0.97152 v 1.65881 h 2.00504 v 0.81648 h -2.00504 v 2.63032 q 0,0.45476 0.0207,0.71314 0.0207,0.25321 0.14469,0.47542 0.11369,0.2067 0.31006,0.30489 0.20154,0.093 0.60978,0.093 0.23771,0 0.49609,-0.0672 0.25838,-0.0724 0.37207,-0.11886 h 0.0517 z" /><path
         d="m 131.17681,95.034845 c -0.39552,0.215905 -0.78869,0.437911 -1.17948,0.665565 -0.63032,-0.461012 -1.27136,-0.912557 -1.92214,-1.354703 -0.8662,0.525961 -1.71818,1.076757 -2.55557,1.647938 -0.35415,0.241485 -0.70583,0.486163 -1.05507,0.733946 0.14681,0.771268 0.30281,1.538109 0.4677,2.300628 -0.35277,0.256913 -0.70306,0.517271 -1.05094,0.780968 -0.60561,-2.728283 -1.09732,-5.5115 -1.46132,-8.354708 -0.002,-0.01995 -0.005,-0.0399 -0.007,-0.05985 0.53158,-0.365518 1.07085,-0.723865 1.61774,-1.074159 2.50468,1.444595 4.90303,3.014839 7.14649,4.714377 z m -3.91312,-1.223482 c -1.16758,-0.760521 -2.36446,-1.491417 -3.5851,-2.193087 0.0836,0.699445 0.17672,1.395283 0.27863,2.087349 0.10334,0.693954 0.21429,1.384314 0.33263,2.071155 0.24361,-0.171006 0.48839,-0.340555 0.73437,-0.508614 0.73469,-0.501904 1.48126,-0.988466 2.23947,-1.456803 z"
         id="path830"
         inkscape:original-d="m 132.59306,127.26324 h -1.09037 l -0.75447,-2.14457 h -3.32796 l -0.75447,2.14457 h -1.03869 l 2.80085,-7.6946 h 1.36425 z m -2.16007,-3.02306 -1.34875,-3.77754 -1.35392,3.77754 z" /><path
         d="m 137.21765,89.220744 c 0.14144,0.44624 0.18672,0.881876 0.14419,1.304254 -0.0436,0.419345 -0.16646,0.804309 -0.365,1.156819 -0.18301,0.332811 -0.42635,0.629803 -0.73115,0.895639 -0.3021,0.261154 -0.64455,0.470204 -1.03268,0.631323 -0.33781,0.14023 -0.65528,0.242351 -0.95606,0.304779 -0.29677,0.06067 -0.61429,0.09466 -0.95475,0.103277 l 1.03096,2.186592 c -0.3416,0.162022 -0.68192,0.329519 -1.02094,0.502171 l -3.56953,-7.050247 c 0.40414,-0.204 0.81155,-0.40268 1.22222,-0.595721 l 0.25774,0.546646 c 0.23087,-0.348287 0.52266,-0.680861 0.8759,-0.993711 0.35627,-0.317935 0.77635,-0.575699 1.2555,-0.767835 0.91438,-0.366661 1.73213,-0.37657 2.40978,-0.05172 0.68478,0.321782 1.15159,0.937304 1.43381,1.827711 z m -1.2439,0.445702 c -0.23322,-0.655592 -0.5556,-1.0915 -0.98152,-1.302181 -0.4239,-0.209683 -0.96101,-0.191978 -1.59195,0.06686 -0.35706,0.146481 -0.69109,0.354112 -0.99782,0.621101 -0.30674,0.267009 -0.57772,0.56511 -0.81176,0.89224 l 1.39444,2.957498 c 0.36783,-0.03651 0.67123,-0.08218 0.91443,-0.141695 0.24692,-0.0612 0.51374,-0.153415 0.80315,-0.275349 0.62158,-0.261878 1.0436,-0.618974 1.27497,-1.094938 0.23028,-0.473709 0.23576,-1.049743 -0.004,-1.723522 z"
         id="path832"
         inkscape:original-d="m 138.76321,124.30735 q 0,0.7028 -0.20154,1.28674 -0.20154,0.57878 -0.56844,0.98185 -0.34106,0.38241 -0.80615,0.59428 -0.45992,0.2067 -0.97668,0.2067 -0.44959,0 -0.81649,-0.0982 -0.36173,-0.0982 -0.73897,-0.30489 v 2.41845 h -0.97151 v -7.9013 h 0.97151 v 0.60461 q 0.38757,-0.32556 0.86816,-0.5426 0.48576,-0.22221 1.03353,-0.22221 1.04386,0 1.62263,0.79065 0.58395,0.78548 0.58395,2.1859 z m -1.00252,0.0258 q 0,-1.04386 -0.35657,-1.56062 -0.35657,-0.51676 -1.09554,-0.51676 -0.41858,0 -0.84232,0.18086 -0.42375,0.18087 -0.81132,0.47543 v 3.2711 q 0.41341,0.18604 0.70797,0.25322 0.29972,0.0672 0.67696,0.0672 0.81131,0 1.26606,-0.54777 0.45476,-0.54777 0.45476,-1.62264 z" /><path
         d="m 145.75975,87.671993 c 0.0215,0.46751 -0.0471,0.900083 -0.19562,1.297468 -0.14875,0.394205 -0.36377,0.735298 -0.64142,1.026421 -0.25794,0.276009 -0.56323,0.502678 -0.91828,0.684827 -0.3514,0.178305 -0.72723,0.296918 -1.13506,0.359266 -0.35494,0.05426 -0.68114,0.07747 -0.98266,0.06689 -0.29729,-0.01133 -0.60838,-0.0527 -0.9366,-0.122923 l 0.51033,2.365239 c -0.35521,0.0767 -0.70948,0.160056 -1.06248,0.249887 l -1.95679,-7.658568 c 0.4483,-0.114763 0.89906,-0.221085 1.35198,-0.318774 l 0.12758,0.591307 c 0.30961,-0.288926 0.67737,-0.547775 1.10256,-0.771323 0.42945,-0.227819 0.90868,-0.380133 1.43001,-0.451657 0.99504,-0.136516 1.8038,0.06061 2.38308,0.547285 0.58766,0.486018 0.88042,1.201915 0.92336,2.134633 z m -1.31796,0.114258 c -0.0611,-0.693724 -0.26419,-1.197089 -0.62798,-1.50743 -0.36168,-0.308533 -0.8941,-0.4243 -1.57868,-0.323243 -0.38735,0.05718 -0.76699,0.180872 -1.133,0.37023 -0.36603,0.189371 -0.70317,0.418726 -1.00911,0.685733 l 0.69025,3.19913 c 0.36284,0.04885 0.66442,0.0753 0.912,0.07467 0.25131,-0.0014 0.52868,-0.02765 0.83502,-0.07654 0.65782,-0.104988 1.14784,-0.346911 1.4871,-0.75111 0.33724,-0.401806 0.4872,-0.958672 0.4244,-1.671422 z"
         id="path834"
         inkscape:original-d="m 145.3571,124.30735 q 0,0.7028 -0.20154,1.28674 -0.20154,0.57878 -0.56844,0.98185 -0.34106,0.38241 -0.80615,0.59428 -0.45992,0.2067 -0.97668,0.2067 -0.44958,0 -0.81649,-0.0982 -0.36173,-0.0982 -0.73897,-0.30489 v 2.41845 h -0.97151 v -7.9013 h 0.97151 v 0.60461 q 0.38757,-0.32556 0.86816,-0.5426 0.48576,-0.22221 1.03353,-0.22221 1.04386,0 1.62263,0.79065 0.58395,0.78548 0.58395,2.1859 z m -1.00252,0.0258 q 0,-1.04386 -0.35657,-1.56062 -0.35657,-0.51676 -1.09554,-0.51676 -0.41857,0 -0.84232,0.18086 -0.42375,0.18087 -0.81132,0.47543 v 3.2711 q 0.41341,0.18604 0.70797,0.25322 0.29972,0.0672 0.67696,0.0672 0.81131,0 1.26607,-0.54777 0.45475,-0.54777 0.45475,-1.62264 z" /><path
         d="m 154.03529,88.606417 c -1.37197,-0.319249 -2.76417,-0.54811 -4.16792,-0.675796 -0.45062,-0.04099 -0.90201,-0.07141 -1.35378,-0.0915 -0.0157,0.354087 0.0404,0.667017 0.16216,0.938518 0.12211,0.268334 0.29309,0.49372 0.51148,0.678546 0.15021,0.129237 0.32041,0.24015 0.511,0.333989 0.0763,0.0373 0.15584,0.07185 0.23874,0.103752 0.29458,0.112151 0.61925,0.190757 0.97813,0.239518 0.47579,0.06464 0.96262,0.06527 1.47225,0.0038 0.5161,-0.06428 0.89215,-0.137543 1.13412,-0.239337 0.0211,0.0048 0.0422,0.0096 0.0633,0.01438 l -0.23514,1.032205 c -0.41768,0.04586 -0.83403,0.07717 -1.25181,0.09463 -0.41786,0.01747 -0.84396,-0.0049 -1.28517,-0.0649 -0.44068,-0.05994 -0.83851,-0.142734 -1.19903,-0.254246 0,0 0,0 0,0 -0.55892,-0.175599 -1.0284,-0.419714 -1.41534,-0.748709 -0.63529,-0.543691 -0.98083,-1.275185 -0.97964,-2.228745 0.001,-0.942223 0.34286,-1.695645 1.09093,-2.22682 0.49997,-0.35259 1.11593,-0.567769 1.8345,-0.627425 0,0 0,0 0,0 0.35781,-0.02838 0.73986,-0.01798 1.14249,0.03332 1.12129,0.142857 1.93942,0.531244 2.42897,1.093765 0.49793,0.567624 0.62867,1.263514 0.43914,2.078032 -0.0398,0.171015 -0.0796,0.34203 -0.11942,0.513045 z m -1.07399,-0.987843 c 0.0915,-0.501156 -0.006,-0.922664 -0.30863,-1.258549 -0.29645,-0.334031 -0.81276,-0.562729 -1.53895,-0.653407 -0.38449,-0.04801 -0.73442,-0.04212 -1.04535,0.01433 0,0 0,0 0,0 0,0 -10e-6,0 -10e-6,0 -0.28033,0.05164 -0.52852,0.144193 -0.74317,0.275362 -0.44879,0.277521 -0.70287,0.648768 -0.77856,1.09986 0.4631,0.0205 0.92594,0.05155 1.38815,0.09338 1.01657,0.09305 2.02643,0.237326 3.02652,0.429033 z"
         id="path836"
         inkscape:original-d="m 151.70294,124.47789 h -4.25296 q 0,0.53226 0.1602,0.93017 0.1602,0.39274 0.43925,0.64595 0.26872,0.24805 0.63562,0.37207 0.37207,0.12402 0.81648,0.12402 0.58911,0 1.18339,-0.23254 0.59944,-0.23771 0.85266,-0.46509 h 0.0517 v 1.05937 q -0.49092,0.2067 -1.00252,0.34623 -0.51159,0.13953 -1.07486,0.13953 -1.4366,0 -2.24275,-0.77515 -0.80615,-0.78031 -0.80615,-2.21174 0,-1.41593 0.76997,-2.24792 0.77515,-0.83199 2.03605,-0.83199 1.16788,0 1.79833,0.68213 0.63562,0.68212 0.63562,1.93786 z m -0.94567,-0.74414 q -0.005,-0.76481 -0.38758,-1.18339 -0.37723,-0.41858 -1.15238,-0.41858 -0.78031,0 -1.2454,0.45992 -0.45991,0.45992 -0.52193,1.14205 z" /><path
         d="m 160.17079,93.743716 c -0.0141,-0.0068 -0.0282,-0.01364 -0.0423,-0.02045 -0.3387,-0.163544 -0.67981,-0.321704 -1.02314,-0.474222 l 0.25026,-0.562079 c -0.11999,0.0102 -0.28809,0.02777 -0.49619,0.05399 -0.20403,0.02489 -0.39495,0.03436 -0.57373,0.02783 -0.21257,-0.0018 -0.44595,-0.02535 -0.70151,-0.0692 -0.25701,-0.04065 -0.54354,-0.11953 -0.86382,-0.234163 -0.58902,-0.210817 -1.03671,-0.535122 -1.35967,-0.992772 -0.32193,-0.456176 -0.42485,-0.939083 -0.28187,-1.453652 0.11716,-0.421622 0.32587,-0.730027 0.63555,-0.920576 0.31415,-0.192086 0.71799,-0.295286 1.20832,-0.299538 0.49411,-0.0028 1.06734,0.08179 1.70787,0.264722 0.6406,0.182932 1.31849,0.414199 2.02681,0.699632 l 0.061,-0.136976 c 0.0897,-0.201568 0.1149,-0.390341 0.0734,-0.566938 -0.0371,-0.174514 -0.13139,-0.34004 -0.28385,-0.495003 -0.14492,-0.14795 -0.3371,-0.286519 -0.5763,-0.413138 -0.23922,-0.126601 -0.49654,-0.242564 -0.77135,-0.346711 -0.33318,-0.126265 -0.71955,-0.230383 -1.15587,-0.306996 -0.43533,-0.07988 -0.89504,-0.127029 -1.37557,-0.138643 -0.0229,-0.0069 -0.0458,-0.01376 -0.0687,-0.02061 l 0.28334,-0.9455 c 0.27078,0.02751 0.66694,0.08822 1.16983,0.190972 0.50566,0.103338 0.99281,0.244365 1.45822,0.420798 0.54324,0.205937 0.99871,0.429612 1.36391,0.659606 0.37158,0.229082 0.66481,0.484996 0.87968,0.761905 0.21195,0.271823 0.33312,0.556825 0.36639,0.851809 0.0175,0.154921 0.007,0.315169 -0.0299,0.480845 0,0 0,0 0,0 0,0 0,0 0,0 -0.0337,0.149934 -0.0895,0.304184 -0.16687,0.463141 -0.57133,1.173972 -1.14266,2.347943 -1.71399,3.521914 z m -0.48712,-1.793591 0.65404,-1.468957 c -0.36318,-0.142986 -0.80206,-0.303241 -1.30712,-0.468517 -0.50159,-0.163837 -0.91355,-0.262592 -1.22426,-0.305196 -0.37207,-0.04974 -0.69259,-0.02731 -0.95817,0.06243 -0.26501,0.08665 -0.43982,0.271624 -0.5292,0.550496 -0.10097,0.315017 -0.0568,0.590848 0.12586,0.829856 0.18374,0.235743 0.51274,0.435038 0.98844,0.612194 0.39579,0.147402 0.77799,0.228279 1.15385,0.241262 0.37703,0.0098 0.74197,-0.0075 1.09657,-0.05358 z"
         id="path838"
         inkscape:original-d="m 157.66121,127.26324 h -0.96634 v -0.61495 q -0.12919,0.0879 -0.3514,0.24805 -0.21704,0.15502 -0.42375,0.24804 -0.24287,0.11886 -0.5581,0.19637 -0.31522,0.0827 -0.73897,0.0827 -0.78031,0 -1.32291,-0.51676 -0.5426,-0.51676 -0.5426,-1.31774 0,-0.65629 0.27905,-1.05937 0.28422,-0.40824 0.80615,-0.64078 0.5271,-0.23255 1.26607,-0.31523 0.73897,-0.0827 1.58646,-0.12402 v -0.14986 q 0,-0.33073 -0.11886,-0.54777 -0.11368,-0.21704 -0.33073,-0.34106 -0.2067,-0.11886 -0.49609,-0.1602 -0.28938,-0.0413 -0.60461,-0.0413 -0.3824,0 -0.85266,0.10335 -0.47025,0.0982 -0.97151,0.28939 h -0.0517 v -0.98702 q 0.28422,-0.0775 0.82165,-0.17053 0.53744,-0.093 1.05937,-0.093 0.60978,0 1.05936,0.10335 0.45475,0.0982 0.78548,0.34107 0.32556,0.23771 0.49609,0.61495 0.17053,0.37723 0.17053,0.93534 z m -0.96634,-1.4211 v -1.60713 q -0.44442,0.0258 -1.04903,0.0775 -0.59944,0.0517 -0.95084,0.14986 -0.41858,0.11886 -0.67696,0.37207 -0.25838,0.24805 -0.25838,0.6873 0,0.49609 0.29972,0.7493 0.29972,0.24805 0.91467,0.24805 0.51159,0 0.93534,-0.19637 0.42374,-0.20154 0.78548,-0.48059 z" /><path
         d="m 168.66683,93.337078 c -0.0192,-0.01354 -0.0384,-0.02707 -0.0576,-0.04059 -0.14157,-0.141687 -0.28625,-0.271558 -0.43367,-0.389518 -0.14146,-0.117971 -0.3181,-0.248558 -0.52961,-0.389807 -0.34105,-0.227751 -0.71059,-0.387752 -1.10414,-0.478177 -0.39171,-0.09333 -0.79256,-0.140349 -1.19999,-0.140495 l -2.11261,3.507662 c -0.34123,-0.205759 -0.6849,-0.406222 -1.03104,-0.601092 l 2.82978,-5.025171 c 0.39616,0.223144 0.7885,0.451743 1.17705,0.685498 l -0.43957,0.729842 c 0.61397,0.0082 1.13135,0.0741 1.54239,0.186741 0.41765,0.112523 0.80552,0.289728 1.15932,0.529275 0.19429,0.131552 0.33247,0.233199 0.41291,0.301307 0.0823,0.06522 0.20449,0.168976 0.36223,0.309578 z"
         id="path840"
         inkscape:original-d="m 163.13373,122.55036 h -0.0517 q -0.21704,-0.0517 -0.42375,-0.0724 -0.20154,-0.0258 -0.48059,-0.0258 -0.44958,0 -0.86816,0.20153 -0.41858,0.19637 -0.80615,0.5116 v 4.09793 H 159.5319 V 121.491 h 0.97151 v 0.85266 q 0.57877,-0.46509 1.01802,-0.65629 0.44442,-0.19637 0.90434,-0.19637 0.25321,0 0.3669,0.0155 0.11369,0.0103 0.34106,0.0465 z" /><path
         d="m 171.0361,101.27004 c -0.18959,-0.16948 -0.38011,-0.33788 -0.5716,-0.50518 -0.11423,-0.0999 -0.22875,-0.19932 -0.34359,-0.29833 l 0.40236,-0.46527 c -0.12023,-0.02688 -0.28861,-0.06143 -0.49961,-0.101217 -0.20633,-0.03974 -0.39569,-0.0911 -0.56846,-0.154585 -0.20717,-0.06972 -0.42847,-0.168005 -0.66497,-0.294171 -0.2388,-0.123537 -0.49503,-0.294797 -0.77161,-0.513064 -0.50887,-0.401577 -0.84006,-0.868271 -0.99992,-1.415504 -0.15954,-0.546113 -0.092,-1.037525 0.21962,-1.471521 0.25536,-0.355623 0.55876,-0.572608 0.91492,-0.646132 0.36124,-0.07352 0.77488,-0.03482 1.23697,0.121243 0.46544,0.158724 0.97563,0.421263 1.52196,0.791315 0.54651,0.370165 1.11568,0.790571 1.70405,1.263477 l 0.0981,-0.113383 c 0.14427,-0.166836 0.22364,-0.339701 0.23707,-0.519294 0.0169,-0.176464 -0.0222,-0.360183 -0.11841,-0.550484 -0.0912,-0.181557 -0.2289,-0.367691 -0.41338,-0.556943 -0.18452,-0.189245 -0.38839,-0.374475 -0.6115,-0.554881 -0.27052,-0.218747 -0.59637,-0.434004 -0.97669,-0.641926 -0.37828,-0.210679 -0.78897,-0.401153 -1.23045,-0.568824 -0.0189,-0.01394 -0.0377,-0.02786 -0.0566,-0.04177 l 0.58628,-0.794734 c 0.2404,0.113298 0.58227,0.295737 1.01255,0.548305 0.43176,0.253462 0.83561,0.532755 1.21017,0.835739 0.4373,0.353734 0.79055,0.693911 1.06048,1.013453 0.27606,0.32033 0.47344,0.642548 0.59326,0.963234 0.0116,0.03085 0.0224,0.06159 0.0324,0.09222 0,0 0,0 0,0 0.091,0.281713 0.11198,0.553638 0.0643,0.815186 -0.0529,0.290115 -0.20455,0.572668 -0.45296,0.849481 -0.87155,0.971186 -1.74309,1.942367 -2.61463,2.913557 z m 0.0146,-1.87871 1.05155,-1.215951 c -0.30524,-0.241406 -0.6761,-0.523185 -1.10598,-0.834036 -0.42739,-0.308683 -0.78589,-0.531336 -1.06741,-0.670859 -0.33694,-0.165575 -0.64747,-0.24867 -0.92869,-0.251395 -0.27946,-0.0055 -0.50661,0.110454 -0.68338,0.344144 -0.19966,0.263957 -0.24799,0.540291 -0.14935,0.829105 0.10074,0.286084 0.35478,0.587333 0.76045,0.912643 0.33752,0.270661 0.68433,0.471012 1.04482,0.601456 0.36264,0.127774 0.72154,0.222972 1.078,0.284886 z"
         id="path842"
         inkscape:original-d="m 168.34787,127.26324 h -0.96635 v -0.61495 q -0.12919,0.0879 -0.3514,0.24805 -0.21704,0.15502 -0.42374,0.24804 -0.24288,0.11886 -0.55811,0.19637 -0.31522,0.0827 -0.73897,0.0827 -0.78031,0 -1.32291,-0.51676 -0.5426,-0.51676 -0.5426,-1.31774 0,-0.65629 0.27905,-1.05937 0.28422,-0.40824 0.80615,-0.64078 0.5271,-0.23255 1.26607,-0.31523 0.73897,-0.0827 1.58646,-0.12402 v -0.14986 q 0,-0.33073 -0.11885,-0.54777 -0.11369,-0.21704 -0.33073,-0.34106 -0.20671,-0.11886 -0.49609,-0.1602 -0.28939,-0.0413 -0.60462,-0.0413 -0.3824,0 -0.85265,0.10335 -0.47026,0.0982 -0.97152,0.28939 h -0.0517 v -0.98702 q 0.28421,-0.0775 0.82165,-0.17053 0.53743,-0.093 1.05936,-0.093 0.60978,0 1.05936,0.10335 0.45476,0.0982 0.78548,0.34107 0.32556,0.23771 0.4961,0.61495 0.17053,0.37723 0.17053,0.93534 z m -0.96635,-1.4211 v -1.60713 q -0.44441,0.0258 -1.04903,0.0775 -0.59944,0.0517 -0.95084,0.14986 -0.41858,0.11886 -0.67696,0.37207 -0.25838,0.24805 -0.25838,0.6873 0,0.49609 0.29972,0.7493 0.29972,0.24805 0.91467,0.24805 0.5116,0 0.93534,-0.19637 0.42375,-0.20154 0.78548,-0.48059 z" /><path
         d="m 177.0105,107.27381 c -0.27399,-0.3068 -0.55,-0.61141 -0.82809,-0.91374 l 2.41288,-2.22135 c 0.19477,-0.17931 0.36299,-0.36196 0.50442,-0.54841 0.14395,-0.18877 0.22637,-0.36803 0.24698,-0.538 0.0275,-0.18263 -0.008,-0.37709 -0.10628,-0.58275 -0.0961,-0.2079 -0.26389,-0.43861 -0.5041,-0.68981 -0.24665,-0.25793 -0.55348,-0.4811 -0.91899,-0.66697 -0.36554,-0.18589 -0.74617,-0.33178 -1.14062,-0.43722 l -3.0271,3.05503 c -0.29099,-0.28803 -0.58424,-0.57352 -0.87981,-0.85638 l 3.98779,-4.159088 c 0.31813,0.305604 0.63355,0.61356 0.9463,0.92378 l -0.45007,0.454218 c 0.46719,0.10985 0.9059,0.27332 1.31414,0.48909 0.40821,0.21576 0.77318,0.49294 1.09226,0.82943 0.58351,0.61535 0.88241,1.21992 0.90172,1.79805 0.0194,0.57871 -0.23835,1.10154 -0.76383,1.57143 0,0 -2.7876,2.49269 -2.7876,2.49269 z"
         id="path844"
         inkscape:original-d="m 175.04511,127.26324 h -0.97151 v -3.28661 q 0,-0.39791 -0.0465,-0.74414 -0.0465,-0.3514 -0.17053,-0.54777 -0.1292,-0.21704 -0.37207,-0.32039 -0.24288,-0.10852 -0.63045,-0.10852 -0.39791,0 -0.83199,0.19637 -0.43408,0.19637 -0.83199,0.50126 v 4.3098 h -0.97151 V 121.491 h 0.97151 v 0.64078 q 0.45475,-0.37723 0.94051,-0.58911 0.48575,-0.21187 0.99735,-0.21187 0.93534,0 1.42626,0.56327 0.49093,0.56327 0.49093,1.62264 z" /><path
         d="m 182.26608,113.11164 c -0.37531,-0.23824 -0.71161,-0.47844 -1.0094,-0.72204 -0.29509,-0.24012 -0.57169,-0.5237 -0.83141,-0.85123 -0.3308,-0.41715 -0.58998,-0.83439 -0.77792,-1.25482 -0.18526,-0.42255 -0.28552,-0.83425 -0.29998,-1.23745 -0.0173,-0.40643 0.0594,-0.80017 0.23175,-1.18149 0.17224,-0.38115 0.44921,-0.73767 0.83302,-1.06678 0.71563,-0.61362 1.50094,-0.83704 2.35882,-0.65082 0.86045,0.18968 1.66199,0.73566 2.37921,1.63592 0.27863,0.34974 0.51278,0.72271 0.70176,1.11742 0.19183,0.39833 0.34182,0.78069 0.45071,1.14586 l -0.86085,0.65375 c -0.0139,-0.0183 -0.0278,-0.0366 -0.0417,-0.0548 -0.0552,-0.45394 -0.16444,-0.88708 -0.32724,-1.29808 -0.15994,-0.40735 -0.366,-0.76898 -0.61664,-1.08344 -0.46107,-0.5785 -0.9765,-0.91476 -1.53539,-1.00844 -0.55428,-0.0925 -1.10434,0.0944 -1.65428,0.55305 -0.5338,0.44515 -0.8149,0.944 -0.84991,1.49133 -0.0296,0.54953 0.18261,1.10362 0.63491,1.67301 0.15727,0.19798 0.33684,0.38399 0.53904,0.55853 0.20221,0.17456 0.39972,0.31948 0.59313,0.43457 0.16887,0.10027 0.33353,0.19019 0.49415,0.26968 0.16346,0.0774 0.29663,0.13592 0.40024,0.17532 0.0135,0.0178 0.0271,0.0357 0.0406,0.0535 z"
         id="path846"
         inkscape:original-d="m 181.18426,126.9015 q -0.48576,0.23255 -0.92501,0.36174 -0.43408,0.12919 -0.925,0.12919 -0.62529,0 -1.14722,-0.18087 -0.52193,-0.18603 -0.894,-0.5581 -0.37723,-0.37207 -0.58394,-0.94051 -0.2067,-0.56844 -0.2067,-1.32808 0,-1.41593 0.77514,-2.22208 0.78031,-0.80615 2.05672,-0.80615 0.49609,0 0.97151,0.13953 0.48059,0.13952 0.8785,0.34106 v 1.08003 h -0.0517 q -0.44442,-0.34623 -0.91984,-0.53226 -0.47025,-0.18604 -0.91984,-0.18604 -0.82682,0 -1.3074,0.55811 -0.47543,0.55293 -0.47543,1.6278 0,1.04386 0.46509,1.60713 0.47025,0.5581 1.31774,0.5581 0.29456,0 0.59945,-0.0775 0.30489,-0.0775 0.54777,-0.20154 0.21187,-0.10852 0.39791,-0.22737 0.18603,-0.12403 0.29455,-0.21188 h 0.0517 z" /><path
         d="m 188.8293,118.16212 c -1.03726,-1.55173 -2.10229,-3.085 -3.20018,-4.59251 -0.28726,0.20921 -0.49704,0.44883 -0.63017,0.71771 -0.13037,0.26692 -0.19341,0.54782 -0.1897,0.84286 0.001,0.28582 0.06,0.58166 0.17577,0.88837 0.11837,0.31039 0.28734,0.62257 0.50697,0.93775 0.29113,0.4178 0.64514,0.79485 1.06354,1.1331 0.42407,0.34023 0.75885,0.56069 1.00813,0.65919 0.0125,0.0187 0.025,0.0374 0.0376,0.056 l -0.88233,0.59102 c -0.35084,-0.27552 -0.68864,-0.56885 -1.01392,-0.88019 -0.32531,-0.31136 -0.62553,-0.66527 -0.90208,-1.06235 -0.70506,-1.01236 -1.05595,-1.94092 -1.04783,-2.80787 0.0109,-0.86718 0.39208,-1.59054 1.15826,-2.1611 0.75802,-0.56448 1.56373,-0.74118 2.41864,-0.51441 0.85738,0.23043 1.62106,0.81095 2.27134,1.73799 0.60214,0.85841 0.86832,1.65494 0.8059,2.37558 -0.0599,0.72562 -0.44294,1.31886 -1.14058,1.7852 -0.14644,0.0979 -0.29288,0.19575 -0.43932,0.29362 z m -0.0793,-1.45189 c 0.42011,-0.29115 0.65089,-0.65541 0.6892,-1.09416 0.041,-0.43483 -0.13552,-0.93813 -0.53305,-1.50441 -0.40025,-0.57015 -0.8496,-0.93371 -1.34079,-1.09001 -0.48883,-0.15268 -0.93334,-0.11474 -1.3337,0.10917 0.85911,1.17911 1.69776,2.37339 2.51834,3.57941 z"
         id="path848"
         inkscape:original-d="m 187.26138,124.47789 h -4.25295 q 0,0.53226 0.16019,0.93017 0.1602,0.39274 0.43925,0.64595 0.26872,0.24805 0.63562,0.37207 0.37207,0.12402 0.81648,0.12402 0.58911,0 1.18339,-0.23254 0.59944,-0.23771 0.85266,-0.46509 h 0.0517 v 1.05937 q -0.49092,0.2067 -1.00251,0.34623 -0.5116,0.13953 -1.07487,0.13953 -1.4366,0 -2.24275,-0.77515 -0.80615,-0.78031 -0.80615,-2.21174 0,-1.41593 0.76998,-2.24792 0.77514,-0.83199 2.03604,-0.83199 1.16788,0 1.79833,0.68213 0.63562,0.68212 0.63562,1.93786 z m -0.94567,-0.74414 q -0.005,-0.76481 -0.38758,-1.18339 -0.37723,-0.41858 -1.15238,-0.41858 -0.78031,0 -1.24539,0.45992 -0.45992,0.45992 -0.52193,1.14205 z" /><path
         d="m 191.83533,124.95313 c -0.44958,0.27554 -0.96731,0.25766 -1.55421,-0.0479 -0.58505,-0.302 -1.13537,-0.8655 -1.65976,-1.6905 -0.29689,-0.46706 -0.52938,-0.92183 -0.69742,-1.36592 -0.16271,-0.44226 -0.27988,-0.82677 -0.35047,-1.15469 l 0.91397,-0.59935 c 0.0123,0.0188 0.0247,0.0376 0.037,0.0565 0.026,0.46167 0.11353,0.93481 0.26241,1.42052 0.15179,0.4839 0.34707,0.91448 0.58724,1.29304 0.29784,0.46944 0.58716,0.80088 0.87092,0.99429 0.28357,0.19327 0.55115,0.21248 0.8031,0.056 0.19332,-0.12005 0.29463,-0.28369 0.30345,-0.49127 0.009,-0.20729 -0.0808,-0.54049 -0.27084,-0.99765 -0.0699,-0.16917 -0.16634,-0.39011 -0.28881,-0.66023 -0.12024,-0.26669 -0.22486,-0.51402 -0.31366,-0.74224 -0.2458,-0.63326 -0.33919,-1.13739 -0.27612,-1.51514 0.0684,-0.37553 0.26049,-0.66811 0.57819,-0.87635 0.19928,-0.13062 0.42213,-0.20013 0.66874,-0.20781 0.24909,-0.004 0.51599,0.0608 0.80024,0.19458 0.27634,0.12795 0.56115,0.3335 0.85326,0.61694 0.2975,0.28547 0.57822,0.63692 0.84075,1.0538 0.24538,0.38963 0.45506,0.80671 0.62872,1.25048 0.17894,0.4457 0.29772,0.83349 0.35757,1.16208 l -0.88515,0.54408 c -0.0119,-0.0194 -0.0238,-0.0389 -0.0358,-0.0583 -0.0161,-0.37539 -0.0952,-0.79647 -0.2384,-1.26229 -0.14032,-0.46774 -0.33192,-0.89414 -0.57418,-1.27812 -0.25204,-0.39949 -0.52489,-0.6993 -0.81666,-0.899 -0.28898,-0.20164 -0.54689,-0.22862 -0.77316,-0.0827 -0.20023,0.12909 -0.29784,0.30893 -0.29361,0.5391 0.002,0.22652 0.086,0.54002 0.25119,0.94175 0.0919,0.22192 0.19784,0.46679 0.31772,0.73502 0.12217,0.27173 0.22031,0.50027 0.29432,0.68384 0.22714,0.55915 0.31662,1.04244 0.27086,1.44771 -0.0487,0.40732 -0.2531,0.72015 -0.61145,0.93977 z"
         id="path850"
         inkscape:original-d="m 192.85792,125.59926 q 0,0.79065 -0.65629,1.29708 -0.65112,0.50642 -1.78283,0.50642 -0.64078,0 -1.17822,-0.14986 -0.53226,-0.15503 -0.894,-0.33589 v -1.09037 h 0.0517 q 0.45992,0.34623 1.02319,0.55293 0.56327,0.20154 1.08003,0.20154 0.64079,0 1.00252,-0.2067 0.36174,-0.20671 0.36174,-0.65113 0,-0.34106 -0.19637,-0.51676 -0.19637,-0.1757 -0.75448,-0.29972 -0.2067,-0.0465 -0.5426,-0.10852 -0.33072,-0.062 -0.60461,-0.13436 -0.75964,-0.20154 -1.08003,-0.58911 -0.31523,-0.39274 -0.31523,-0.96118 0,-0.35656 0.1447,-0.67179 0.14986,-0.31522 0.44958,-0.56327 0.28939,-0.24288 0.7338,-0.3824 0.44959,-0.1447 1.00252,-0.1447 0.51676,0 1.04386,0.12919 0.53227,0.12403 0.88367,0.30489 v 1.0387 h -0.0517 q -0.37207,-0.27389 -0.90433,-0.45992 -0.53227,-0.19121 -1.04387,-0.19121 -0.53226,0 -0.89916,0.20671 -0.3669,0.20154 -0.3669,0.60461 0,0.35657 0.2222,0.53744 0.21704,0.18086 0.7028,0.29455 0.26872,0.062 0.59945,0.12402 0.33589,0.062 0.5581,0.11369 0.67696,0.15503 1.04386,0.53227 0.3669,0.3824 0.3669,1.01285 z" /></g><g
       style="fill:#000000"
       id="g2381"
       transform="matrix(0.2569444,0,0,0.2569444,71.643659,113.6457)"><path
         d="m 263.544,220.613 h -55.641 c 41.161,-47 39.468,-118.261 -5.096,-162.825 C 180.363,35.344 150.521,22.88 118.779,22.88 c -31.741,0 -61.583,12.31 -84.027,34.755 -46.334,46.333 -46.334,121.698 0,168.031 22.444,22.444 52.286,34.997 84.027,34.997 2.519,0 5.024,-0.05 7.516,-0.05 h 137.25 c 11.046,0 20,-8.954 20,-20 0,-11.046 -8.955,-20 -20.001,-20 z M 48.592,172.02 c -16.793,0 -30.407,-13.614 -30.407,-30.407 0,-16.793 13.614,-30.407 30.407,-30.407 16.793,0 30.407,13.614 30.407,30.407 0,16.793 -13.613,30.407 -30.407,30.407 z m 70.186,70.186 c -16.793,0 -30.407,-13.614 -30.407,-30.407 0,-16.793 13.614,-30.407 30.407,-30.407 16.793,0 30.407,13.614 30.407,30.407 0,16.793 -13.614,30.407 -30.407,30.407 z m -8.635,-109.228 c 4.769,-4.769 12.5,-4.769 17.269,0 4.769,4.769 4.769,12.5 0,17.269 -4.769,4.769 -12.5,4.769 -17.269,0 -4.768,-4.769 -4.768,-12.5 0,-17.269 z m 8.635,-31.144 c -16.793,0 -30.407,-13.614 -30.407,-30.407 0,-16.794 13.614,-30.407 30.407,-30.407 16.793,0 30.407,13.614 30.407,30.407 0,16.794 -13.614,30.407 -30.407,30.407 z m 39.778,39.779 c 0,-16.794 13.614,-30.407 30.407,-30.407 16.794,0 30.407,13.614 30.407,30.407 0,16.793 -13.614,30.407 -30.407,30.407 -16.793,0 -30.407,-13.614 -30.407,-30.407 z"
         id="path2373" /></g></g></svg>
